<svg xmlns="http://www.w3.org/2000/svg" role="img" viewBox="-5.55 -5.30 288.60 55.10"><title>cncf-main-site-logo.svg</title><g clip-path="url(#clip0_8557_20058)"><path d="M65.9703 19.59c1.0649.0212 2.1196-.2122 3.077-.6811.9574-.4689 1.79-1.1597 2.4293-2.0155l2.9597 3.0423c-2.3402 2.6276-5.0245 3.9413-8.1907 3.9413-1.4287.0548-2.8538-.1803-4.1901-.6911-1.3363-.5109-2.5564-1.287-3.5875-2.2821-1.004-.9717-1.7927-2.1452-2.3146-3.4439a9.99708 9.99708 0 0 1-.7138-4.0929c-.0393-1.4146.216-2.8218.7493-4.13149.5334-1.30973 1.3331-2.49315 2.3479-3.4745 1.0916-1.03464 2.3805-1.83635 3.789-2.35677 1.4085-.52042 2.9073-.74875 4.4061-.67121 1.4987.07755 2.9663.45935 4.3141 1.12238 1.3478.66303 2.5479 1.59353 3.5279 2.73534l-2.822 3.24981c-.6217-.8409-1.4315-1.52312-2.3641-1.99156-.9326-.46845-1.9618-.70998-3.0045-.70509-1.6253-.03142-3.2011.56222-4.405 1.65948-.6248.57656-1.1153 1.28451-1.4365 2.07331a5.81828 5.81828 0 0 0-.4219 2.4903 6.24862 6.24862 0 0 0 .3827 2.4954c.2959.7968.7513 1.5242 1.338 2.1373 1.1325 1.0265 2.6044 1.5933 4.1297 1.5903zm12.0448 4.0103V3.06421h4.5427V19.5207h8.7413v4.0796h-13.284zm33.2449-2.8348c-2.069 1.9544-4.801 3.0426-7.64 3.0426-2.84 0-5.5723-1.0882-7.6404-3.0426-1.0086-.9717-1.8048-2.1435-2.338-3.4411-.5333-1.2975-.7919-2.6923-.7593-4.0957-.039-1.4043.2167-2.8011.7503-4.09955.5336-1.29848 1.3333-2.46963 2.347-3.43731 2.0681-1.95446 4.8004-3.04267 7.6404-3.04267 2.839 0 5.571 1.08821 7.64 3.04267 1.008.97162 1.804 2.14347 2.338 3.44102.533 1.29754.791 2.69244.759 4.09584.039 1.4042-.217 2.801-.75 4.0995-.534 1.2984-1.334 2.4696-2.347 3.4373zm-1.584-7.5368c.013-1.7375-.626-3.41617-1.789-4.70191-.548-.60926-1.217-1.0963-1.964-1.42964-.747-.33334-1.555-.50557-2.372-.50557-.818 0-1.626.17223-2.373.50557-.747.33334-1.4156.82038-1.9635 1.42964-1.1766 1.27754-1.8175 2.96161-1.7895 4.70191-.0128 1.7375.6261 3.4161 1.7895 4.7018.5479.6093 1.2165 1.0963 1.9635 1.4297.747.3333 1.555.5055 2.373.5055.817 0 1.625-.1722 2.372-.5055.747-.3334 1.416-.8204 1.964-1.4297.596-.6237 1.062-1.3611 1.369-2.1688.307-.8076.45-1.6689.42-2.533zm13.973 5.1165c.363.4729.834.8515 1.373 1.1041.539.2527 1.13.372 1.724.348a3.4964 3.4964 0 0 0 1.698-.339c.529-.2536.987-.6363 1.331-1.1131.79-1.1294 1.178-2.4937 1.101-3.8721V3.1333h4.542v11.4781c0 2.9732-.825 5.255-2.477 6.8453-.832.8012-1.814 1.4278-2.89 1.8433a8.6329 8.6329 0 0 1-3.374.5768c-1.162.0349-2.319-.161-3.406-.5762a8.83598 8.83598 0 0 1-2.926-1.8439c-1.652-1.5903-2.478-3.8721-2.478-6.8453V3.1333h4.543v11.3398c-.002 1.3893.432 2.7439 1.239 3.8721zm32.143-12.58433c1.927 1.79777 2.959 4.28703 2.959 7.46763 0 3.1807-.963 5.7391-2.822 7.606-1.858 1.8669-4.818 2.7658-8.672 2.7658h-7.089V3.06421h7.227c3.648 0 6.47.89888 8.397 2.69666zm-3.304 12.23863c1.101-1.0371 1.652-2.6275 1.652-4.6327s-.551-3.59552-1.652-4.6327c-1.101-1.03717-2.822-1.65948-5.162-1.65948h-2.547V19.5899h2.891c1.747.0935 3.466-.4739 4.818-1.5904zM184.7 3.06421h4.542V23.6003H184.7l-9.774-12.861v12.861h-4.543V3.06421h4.268L184.7 16.2709V3.06421zm24.158 20.53609l-1.927-4.4253h-8.603l-1.928 4.4253h-4.886l8.81-20.53609h4.405l8.81 20.53609h-4.681zm-6.125-14.38218l-2.547 5.94648h5.093l-2.546-5.94648zm20.579-2.14355V23.6694h-4.542V7.07457h-5.782V3.1333h16.175v3.94127h-5.851zm9.086-4.01036h4.543V23.6003h-4.543V3.06421zm17.138 13.06839l5.231-13.06839h4.956l-8.191 20.53609h-3.854l-8.191-20.53609h4.956l5.093 13.06839zm27.325-13.06839v4.07956h-10.186v4.21783h9.154v3.9413h-9.154v4.287h10.531v4.0795h-15.074V3.13335h14.729v-.06914zM60.7393 41.0939a3.76515 3.76515 0 0 0 1.7314-.3851c.5385-.2645 1.0067-.6539 1.3659-1.1361l1.6519 1.7286c-.5608.6852-1.2644 1.2385-2.0612 1.6208a6.0134 6.0134 0 0 1-2.5504.5918 5.84023 5.84023 0 0 1-2.3384-.3805c-.7456-.2854-1.4254-.7206-1.9978-1.279-.5662-.5417-1.0121-1.1975-1.3086-1.9243a5.6024 5.6024 0 0 1-.4121-2.2935 5.75554 5.75554 0 0 1 .4112-2.3255c.2962-.738.7422-1.4061 1.3095-1.9615.5569-.5646 1.2226-1.009 1.9563-1.3063a5.79319 5.79319 0 0 1 2.3111-.4223 6.11459 6.11459 0 0 1 2.612.541c.8207.3704 1.5503.9174 2.1372 1.6025l-1.5831 1.7977c-.3452-.4801-.8009-.8692-1.3283-1.1341a3.63973 3.63973 0 0 0-1.7001-.387c-.9186-.0061-1.8048.3401-2.4779.968a3.23715 3.23715 0 0 0-.8014 1.163 3.24873 3.24873 0 0 0-.231 1.3954c-.0211.4698.0535.939.2192 1.3789.1657.4399.419.8413.7444 1.1794.2972.3218.6603.5749 1.0643.742.4041.1672.8393.2443 1.2759.2261zm16.1061.6917c-1.1432 1.1139-2.6748 1.7343-4.2674 1.7286a5.6818 5.6818 0 0 1-2.3148-.413c-.7347-.2976-1.3997-.7456-1.9526-1.3156-1.1029-1.1242-1.7212-2.6393-1.7212-4.2178 0-1.5785.6183-3.0936 1.7212-4.2179 1.1432-1.1139 2.6748-1.7343 4.2674-1.7286a5.6818 5.6818 0 0 1 2.3148.413c.7347.2976 1.3997.7457 1.9526 1.3156 1.1029 1.1243 1.7213 2.6394 1.7213 4.2179s-.6184 3.0936-1.7213 4.2178zm-.826-4.2178c.0191-.9664-.325-1.9045-.9636-2.6275a3.29599 3.29599 0 0 0-1.089-.8069 3.28416 3.28416 0 0 0-1.32-.2995 2.95482 2.95482 0 0 0-1.3342.2681c-.4181.192-.786.479-1.0748.8383-.3297.3493-.5851.7624-.7508 1.2141-.1656.4518-.238.9326-.2128 1.4134-.0066.9642.3359 1.898.9636 2.6275.3036.3417.6744.6164 1.0891.8069.4146.1904.8641.2923 1.3199.2994.4594.0157.9162-.0761 1.3343-.2681.418-.192.786-.4789 1.0747-.8382.6386-.723.9827-1.6611.9636-2.6275zm15.0046-1.4524l-3.0973 6.2922h-1.5142l-3.0973-6.2922v7.2602h-2.5466V31.8284H84.21l2.9596 6.2922 2.9596-6.2922h3.4415v11.5472H91.024v-7.2602zm13.284-3.1807c.435.3997.773.8943.988 1.4457.214.5514.3 1.1449.251 1.735 0 1.452-.413 2.4892-1.239 3.1115-.826.6914-2.065.968-3.785.968h-1.5147v3.1807h-2.5466V31.8284h4.0613c1.72.0691 2.959.4148 3.785 1.1063zm-1.858 4.4944c.333-.4348.503-.9731.482-1.5212.029-.2651-.012-.5334-.121-.7767-.109-.2434-.282-.4527-.499-.6062-.567-.3143-1.212-.4583-1.858-.4148h-1.4457v3.8721h1.7207c.309.0273.62-.0075.916-.1025.295-.095.569-.2482.805-.4507zm8.121 2.9736c.207.2594.469.4688.766.6128.298.1439.625.2186.955.2186.331 0 .657-.0747.955-.2186.298-.144.56-.3534.766-.6128.448-.6467.666-1.4262.619-2.2127v-6.3613h2.547v6.4305c.039.705-.062 1.4109-.299 2.0759-.236.665-.603 1.2757-1.078 1.7962-.973.8579-2.228 1.3252-3.523 1.3125-1.295-.0128-2.54-.5047-3.497-1.3817-.475-.5204-.842-1.1311-1.078-1.7962-.237-.665-.338-1.3708-.299-2.0759v-6.4305h2.547v6.3614c-.067.8101.152 1.618.619 2.2818zm14.11-6.2924v9.2655h-2.546v-9.2655H118.9v-2.2126h9.085v2.2126h-3.304zm5.163-2.2126h2.546v11.5472h-2.546V31.8977zm13.352 0h2.547v11.5472h-2.547l-5.437-7.1911v7.1911h-2.547V31.8977h2.409l5.644 7.3985v-7.3985h-.069zm12.871 5.67h2.547v4.0795a6.19186 6.19186 0 0 1-2.166 1.4846c-.819.334-1.7.4879-2.583.4515-1.584.0309-3.117-.5651-4.268-1.6595a5.57407 5.57407 0 0 1-1.308-1.9243c-.297-.7269-.437-1.5084-.412-2.2935-.015-.7882.127-1.5714.419-2.3034.291-.732.726-1.398 1.277-1.9587.552-.5606 1.21-1.0046 1.935-1.3058a5.85248 5.85248 0 0 1 2.288-.4477c1.584-.031 3.117.5651 4.267 1.6594l-1.308 1.9361c-.396-.4204-.894-.7302-1.445-.8989a4.43343 4.43343 0 0 0-1.376-.2766c-.919-.006-1.805.3402-2.478.9681-.347.3402-.618.7502-.796 1.203-.178.4527-.258.9382-.237 1.4245-.031.9685.314 1.9112.964 2.6275.293.3081.646.5529 1.036.7193.391.1665.811.2511 1.235.2487.765.0441 1.526-.1233 2.203-.484v-3.2498h.206zm17.001-5.67v2.2818h-5.3v2.4892h5.024v2.2818h-5.024v4.4944h-2.547V31.8977h7.847zm11.838 9.8879c-1.143 1.1139-2.675 1.7343-4.267 1.7286-.792.0253-1.58-.1154-2.315-.413-.735-.2976-1.4-.7456-1.953-1.3156-1.103-1.1242-1.721-2.6393-1.721-4.2178 0-1.5785.618-3.0936 1.721-4.2179 1.144-1.1139 2.675-1.7343 4.268-1.7286.792-.0253 1.58.1154 2.315.413.734.2976 1.399.7457 1.952 1.3156 1.103 1.1243 1.721 2.6394 1.721 4.2179s-.618 3.0936-1.721 4.2178zm-.895-4.2178c.019-.9664-.325-1.9045-.963-2.6275-.304-.3418-.675-.6165-1.089-.8069-.415-.1905-.864-.2924-1.32-.2995-.46-.0157-.916.0761-1.334.2681-.419.192-.786.479-1.075.8383-.33.3493-.585.7624-.751 1.2141-.166.4518-.238.9326-.213 1.4134-.006.9642.336 1.898.964 2.6275.303.3417.674.6164 1.089.8069.414.1904.864.2923 1.32.2994.459.0157.916-.0761 1.334-.2681.418-.192.786-.4789 1.075-.8382.329-.3494.585-.7625.751-1.2142.165-.4517.238-.9326.212-1.4133zm7.847 2.8349c.206.2594.468.4688.766.6128.298.1439.624.2186.954.2186.331 0 .657-.0747.955-.2186.298-.144.56-.3534.766-.6128.448-.6467.667-1.4262.62-2.2127v-6.3613h2.546v6.4305c.04.705-.062 1.4109-.298 2.0759-.237.665-.603 1.2757-1.078 1.7962-.974.8579-2.228 1.3252-3.524 1.3125-1.295-.0128-2.54-.5047-3.497-1.3817-.475-.5204-.841-1.1311-1.078-1.7962-.236-.665-.338-1.3708-.298-2.0759v-6.4305h2.546v6.3614c-.1.8128.122 1.6327.62 2.2818zm17.276-8.505h2.547v11.5472h-2.547l-5.437-7.1911v7.1911h-2.547V31.8977h2.409l5.644 7.3985v-7.3985h-.069zm14.11 1.5212c.559.5436.996 1.2013 1.281 1.9289.285.7276.412 1.5081.371 2.2889.036.7744-.085 1.548-.358 2.2734-.272.7253-.689 1.3871-1.225 1.9445-1.033 1.0372-2.685 1.5903-4.887 1.5903h-3.923V31.8977h4.061c2.064 0 3.647.484 4.68 1.5212zm-1.858 6.8454c.325-.3382.578-.7395.744-1.1794.166-.4399.24-.9091.219-1.379.022-.4804-.052-.9603-.218-1.4115-.165-.4512-.419-.8646-.745-1.216-.399-.334-.86-.5854-1.356-.7396-.497-.1543-1.018-.2084-1.535-.1593h-1.446v6.9836h1.652c.97.0125 1.916-.3042 2.685-.8988zm13.559 3.1113l-1.033-2.4892h-4.818l-1.032 2.4892h-2.753l4.956-11.5472h2.477l4.956 11.5472h-2.753zm-3.442-8.09l-1.445 3.319h2.891l-1.446-3.319zm11.564-1.1753v9.2655h-2.547v-9.2655h-3.304v-2.2126h9.085v2.2126h-3.234zm5.093-2.2126h2.547v11.5472h-2.547V31.8977zm15.004 9.8879c-1.143 1.1139-2.674 1.7343-4.267 1.7286-.792.0253-1.58-.1154-2.315-.413-.734-.2976-1.399-.7456-1.952-1.3156-1.103-1.1242-1.722-2.6393-1.722-4.2178 0-1.5785.619-3.0936 1.722-4.2179 1.143-1.1139 2.675-1.7343 4.267-1.7286.792-.0253 1.58.1154 2.315.413.735.2976 1.4.7457 1.952 1.3156 1.103 1.1243 1.722 2.6394 1.722 4.2179s-.619 3.0936-1.722 4.2178zm-.825-4.2178c.019-.9664-.326-1.9045-.964-2.6275-.304-.3418-.674-.6165-1.089-.8069-.415-.1905-.864-.2924-1.32-.2995-.459-.0157-.916.0761-1.334.2681-.418.192-.786.479-1.075.8383-.33.3493-.585.7624-.751 1.2141-.166.4518-.238.9326-.213 1.4134-.006.9642.336 1.898.964 2.6275.303.3417.674.6164 1.089.8069.415.1904.864.2923 1.32.2994.459.0157.916-.0761 1.334-.2681.418-.192.786-.4789 1.075-.8382.638-.723.983-1.6611.964-2.6275zm12.733-5.6701h2.546v11.5472h-2.546l-5.438-7.1911v7.1911h-2.546V31.8977h2.409l5.644 7.3985-.069-7.3985z"/><path fill="#0086FF" d="M6.29588 29.7058H.03248v14.7763H14.693v-6.3544H6.29588v-8.4219zm31.52362.0692v8.3527h-8.3971v6.3544h14.6605V29.7058h-6.3323l.0689.0692zM.03247 15.0055h6.33224l-.06883-.0691V6.58368H14.693V.22925H.03247V15.0055zM29.4224.22925v6.35443h8.3971v8.42182h6.2634V.22925H29.4224z"/><path fill="#93EAFF" d="M28.5963 15.0055l-8.3971-8.42182h9.223V.22925H14.6929v6.35443L23.09 15.0055h5.5063zm-7.5712 14.7003h-5.5063l6.9517 6.9767 1.3766 1.4452h-9.1542v6.3544h14.7293v-6.4236l-4.1985-4.1487-4.1986-4.204zm16.7944-14.7002v9.1825l-1.4454-1.4521-6.9517-6.9767v5.5938l4.1297 4.1487 4.1985 4.211h6.3323V15.0056h-6.2634zM14.693 23.3583l-8.32829-8.3527H.03247v14.7002h6.26341v-9.1824l8.39712 8.4288v-5.5939z"/></g><defs><clipPath id="clip0_8557_20058"><path fill="#fff" d="M0 0h277.586v44.253H0z" transform="translate(.032 .23)"/></clipPath></defs></svg>