<?xml version="1.0" standalone="no"?><!DOCTYPE svg PUBLIC "-//W3C//DTD SVG 1.1//EN" "http://www.w3.org/Graphics/SVG/1.1/DTD/svg11.dtd"><svg t="1642860773910" class="icon" viewBox="0 0 1024 1024" version="1.1" xmlns="http://www.w3.org/2000/svg" p-id="6248" xmlns:xlink="http://www.w3.org/1999/xlink" width="200" height="200"><defs><style type="text/css">@font-face { font-family: element-icons; src: url("chrome-extension://moombeodfomdpjnpocobemoiaemednkg/fonts/element-icons.woff") format("woff"), url("chrome-extension://moombeodfomdpjnpocobemoiaemednkg/fonts/element-icons.ttf ") format("truetype"); }
</style></defs><path d="M827.92 302.29h-138.1v-56.9a65 65 0 0 0-64.9-64.9H381.31a65 65 0 0 0-64.9 64.9v56.9h-117.8a65 65 0 0 0-64.9 64.91v446.61a65 65 0 0 0 64.9 64.9h629.31a65 65 0 0 0 64.9-64.9V367.2a65 65 0 0 0-64.9-64.91zM365 265.69a36.64 36.64 0 0 1 36.6-36.6h203a36.64 36.64 0 0 1 36.6 36.6v36.6H365zM844.22 545.9h-296.5v48.6h296.5v199a36.64 36.64 0 0 1-36.6 36.6H218.91a36.64 36.64 0 0 1-36.6-36.6v-199h295.8v-48.6h-295.8V387.49a36.63 36.63 0 0 1 36.6-36.59h588.71a36.63 36.63 0 0 1 36.6 36.59z" fill="#1E7FFE" p-id="6249"></path><path d="M547.72 499.15v101.5a34.45 34.45 0 1 1-68.9 0v-6.15h-0.71v-48.6h0.71v-46.75a34.45 34.45 0 1 1 68.9 0z" fill="#F4B426" p-id="6250"></path></svg>