<?xml version="1.0" standalone="no"?><!DOCTYPE svg PUBLIC "-//W3C//DTD SVG 1.1//EN" "http://www.w3.org/Graphics/SVG/1.1/DTD/svg11.dtd"><svg t="1641096402446" class="icon" viewBox="0 0 1024 1024" version="1.1" xmlns="http://www.w3.org/2000/svg" p-id="4195" xmlns:xlink="http://www.w3.org/1999/xlink" width="200" height="200"><defs><style type="text/css">@font-face { font-family: element-icons; src: url("chrome-extension://moombeodfomdpjnpocobemoiaemednkg/fonts/element-icons.woff") format("woff"), url("chrome-extension://moombeodfomdpjnpocobemoiaemednkg/fonts/element-icons.ttf ") format("truetype"); }
</style></defs><path d="M514.64 511m-84.76 0a84.76 84.76 0 1 0 169.52 0 84.76 84.76 0 1 0-169.52 0Z" fill="#1AD8E2" p-id="4196"></path><path d="M661.36 190.85L548.54 78a47.85 47.85 0 0 0-32-14c-1.21-0.09-2.43-0.15-3.66-0.15A48.95 48.95 0 0 0 478.58 78L365.77 190.85a48 48 0 0 0 0 67.88 48 48 0 0 0 67.88 0l31.21-31.21v115.22a48 48 0 0 0 48 48 48 48 0 0 0 48-48V226.11l32.61 32.62a48 48 0 0 0 67.89 0 48 48 0 0 0 0-67.88zM364.23 832.86l112.82 112.81a47.82 47.82 0 0 0 32 14c1.21 0.09 2.43 0.15 3.66 0.15A48.9 48.9 0 0 0 547 945.67l112.83-112.81a48 48 0 0 0 0-67.88 48 48 0 0 0-67.89 0l-31.21 31.2V681a48 48 0 0 0-48-48 48 48 0 0 0-48 48v116.59L432.12 765a48 48 0 0 0-67.89 0 48 48 0 0 0 0 67.86zM831.12 663.76L943.93 551a47.86 47.86 0 0 0 14-32c0.09-1.21 0.15-2.43 0.15-3.67A48.86 48.86 0 0 0 943.93 481L831.12 368.17a48 48 0 0 0-67.89 0 48 48 0 0 0 0 67.88l31.21 31.21H679.23a48 48 0 0 0-48 48 48 48 0 0 0 48 48h116.62l-32.62 32.62a48 48 0 0 0 0 67.88 48 48 0 0 0 67.89 0zM187.88 366.64L75.06 479.45a47.82 47.82 0 0 0-14 32c-0.1 1.21-0.16 2.43-0.16 3.67a48.86 48.86 0 0 0 14.17 34.27l112.81 112.84a48 48 0 0 0 67.88 0 48 48 0 0 0 0-67.88l-31.21-31.21h115.21a48 48 0 0 0 48-48 48 48 0 0 0-48-48H223.14l32.62-32.62a48 48 0 0 0 0-67.88 48 48 0 0 0-67.88 0z" fill="#2C77E5" p-id="4197"></path></svg>