<?xml version="1.0" standalone="no"?><!DOCTYPE svg PUBLIC "-//W3C//DTD SVG 1.1//EN" "http://www.w3.org/Graphics/SVG/1.1/DTD/svg11.dtd"><svg t="1641097059272" class="icon" viewBox="0 0 1024 1024" version="1.1" xmlns="http://www.w3.org/2000/svg" p-id="11874" xmlns:xlink="http://www.w3.org/1999/xlink" width="200" height="200"><defs><style type="text/css">@font-face { font-family: element-icons; src: url("chrome-extension://moombeodfomdpjnpocobemoiaemednkg/fonts/element-icons.woff") format("woff"), url("chrome-extension://moombeodfomdpjnpocobemoiaemednkg/fonts/element-icons.ttf ") format("truetype"); }
</style></defs><path d="M851.2 416h-28.8l-9.6-27.2-12.8-27.2 22.4-22.4a43.2 43.2 0 0 0 12.8-32 43.2 43.2 0 0 0-12.8-30.4l-72-72A43.2 43.2 0 0 0 720 192a46.4 46.4 0 0 0-32 12.8l-24 22.4-27.2-12.8-28.8-9.6v-32A44.8 44.8 0 0 0 563.2 128h-102.4a44.8 44.8 0 0 0-44.8 44.8v32l-28.8 9.6-27.2 12.8-24-22.4a44.8 44.8 0 0 0-62.4 0l-72 72a44.8 44.8 0 0 0 0 62.4l22.4 22.4-12.8 27.2-9.6 27.2h-28.8A44.8 44.8 0 0 0 128 460.8v102.4a44.8 44.8 0 0 0 44.8 44.8h32l9.6 28.8 12.8 27.2-22.4 24a44.8 44.8 0 0 0 0 62.4l72 73.6a44.8 44.8 0 0 0 32 12.8 43.2 43.2 0 0 0 30.4-12.8l22.4-24 27.2 12.8 27.2 9.6V848a16 16 0 0 0 3.2 9.6 48 48 0 0 0 41.6 38.4h107.2c24-3.2 36.8-33.6 40-40a16 16 0 0 0 1.6-6.4v-27.2l27.2-9.6 27.2-12.8 22.4 22.4a43.2 43.2 0 0 0 32 12.8 43.2 43.2 0 0 0 30.4-12.8l72-73.6a44.8 44.8 0 0 0 0-62.4l-22.4-24 11.2-24h1.6l9.6-28.8h32a44.8 44.8 0 0 0 43.2-46.4v-102.4a44.8 44.8 0 0 0-44.8-44.8z m12.8 147.2a12.8 12.8 0 0 1-12.8 12.8h-43.2a16 16 0 0 0-16 12.8 283.2 283.2 0 0 1-11.2 35.2h-1.6l-16 33.6a16 16 0 0 0 3.2 19.2l30.4 32a12.8 12.8 0 0 1 0 17.6L724.8 800a11.2 11.2 0 0 1-8 3.2 11.2 11.2 0 0 1-8-3.2l-32-32a16 16 0 0 0-19.2-1.6l-33.6 16-36.8 12.8a16 16 0 0 0-11.2 16V848a44.8 44.8 0 0 1-12.8 17.6H464a16 16 0 0 1-12.8-16 16 16 0 0 0-1.6-8v-32a16 16 0 0 0-11.2-16l-35.2-12.8-35.2-16a16 16 0 0 0-19.2 1.6l-32 32-8 3.2-8-3.2-72-73.6a12.8 12.8 0 0 1 0-17.6l32-32a16 16 0 0 0 1.6-19.2 227.2 227.2 0 0 1-16-33.6 344 344 0 0 1-12.8-36.8 16 16 0 0 0-16-11.2h-44.8a12.8 12.8 0 0 1-12.8-12.8v-100.8a12.8 12.8 0 0 1 12.8-12.8h41.6a16 16 0 0 0 16-11.2 331.2 331.2 0 0 1 12.8-35.2 244.8 244.8 0 0 1 16-33.6 16 16 0 0 0-1.6-19.2l-32-32a12.8 12.8 0 0 1 0-17.6l72-72a12.8 12.8 0 0 1 17.6 0l32 30.4a16 16 0 0 0 19.2 3.2l33.6-16 36.8-12.8a16 16 0 0 0 12.8-16v-43.2a12.8 12.8 0 0 1 12.8-12.8h102.4a12.8 12.8 0 0 1 12.8 12.8v43.2a16 16 0 0 0 12.8 16l35.2 12.8 33.6 16a16 16 0 0 0 19.2-3.2l32-32 8-3.2 8 3.2 73.6 73.6a11.2 11.2 0 0 1 3.2 8 12.8 12.8 0 0 1-3.2 8l-32 32a16 16 0 0 0-3.2 19.2 321.6 321.6 0 0 1 16 33.6 276.8 276.8 0 0 1 12.8 35.2 16 16 0 0 0 16 11.2h41.6a12.8 12.8 0 0 1 12.8 11.2z" fill="#0084FF" p-id="11875"></path><path d="M512 336a176 176 0 1 0 176 176 176 176 0 0 0-176-176z m0 320a144 144 0 1 1 144-144 144 144 0 0 1-144 144z" fill="#0084FF" p-id="11876"></path></svg>