<?xml version="1.0" standalone="no"?><!DOCTYPE svg PUBLIC "-//W3C//DTD SVG 1.1//EN" "http://www.w3.org/Graphics/SVG/1.1/DTD/svg11.dtd"><svg t="1641096335098" class="icon" viewBox="0 0 1024 1024" version="1.1" xmlns="http://www.w3.org/2000/svg" p-id="3341" xmlns:xlink="http://www.w3.org/1999/xlink" width="200" height="200"><defs><style type="text/css">@font-face { font-family: element-icons; src: url("chrome-extension://moombeodfomdpjnpocobemoiaemednkg/fonts/element-icons.woff") format("woff"), url("chrome-extension://moombeodfomdpjnpocobemoiaemednkg/fonts/element-icons.ttf ") format("truetype"); }
</style></defs><path d="M736.578 740.678h-451.5c-95.4 0-173.1-77.6-173.1-173.1v-280.6c0-95.4 77.6-173.1 173.1-173.1h451.6c95.5 0 173.1 77.6 173.1 173.1v280.6c-0.1 95.5-77.7 173.1-173.2 173.1z m-451.5-537c-45.9 0-83.3 37.4-83.3 83.3v280.6c0 45.9 37.4 83.3 83.3 83.3h451.6c45.9 0 83.3-37.4 83.3-83.3v-280.6c0-45.9-37.4-83.3-83.3-83.3h-451.6z" fill="#3F85FF" p-id="3342"></path><path d="M462.113 623.744l-8-1.1c-28.2-8.4-54.2-22.8-76.3-42.2-6.5-5.4-10.3-13.5-10.3-21.9 0-8.5 3.8-16.5 10.3-21.9 5.6-3.9 9.2-10.2 9.7-17.1 0.9-8.1-3-16-9.9-20.3-6.9-4.3-15.7-4.1-22.6 0.3-7.8 3.4-16.7 3.4-24.5 0-7.9-3.5-13.8-10.4-16-18.8-5.3-17.4-8-35.4-8-53.6 0.2-16.6 2.5-33 6.8-49 1.6-7.8 6.6-14.5 13.7-18.2 7.4-3.4 15.9-3.4 23.4 0 6.9 2.4 14.5 1.3 20.5-2.9s9.6-10.9 9.7-18.2c-0.1-6.4-3-12.5-8-16.5-6.1-5.3-9.6-13-9.7-21.1 0-8 3.3-15.6 9.1-21.1 23.4-21.2 51.5-36.6 82-45 14.9-4 30.3 4.6 34.8 19.4 3.8 8.8 12.7 14.2 22.2 13.7 9.8 0.1 18.5-6.5 21.1-16 5.4-14.5 21.3-22.1 35.9-17.1 30.4 8.4 58.4 24 81.5 45.6 5.8 5.5 9.1 13.1 9.1 21.1-0.3 8-3.8 15.6-9.7 21.1-5 4.1-7.9 10.1-8 16.5 0 6 2.4 11.8 6.7 16.1 4.3 4.3 10.1 6.7 16.1 6.7h7.4c7.2-3.4 15.6-3.4 22.8 0 7.4 3.5 12.7 10.2 14.2 18.2 4.4 16 6.6 32.4 6.8 49-0.2 17.1-2.5 34.1-6.8 50.7-2.2 7.7-7.3 14.2-14.2 18.2-7.3 2.9-15.5 2.9-22.8 0-6.9-3-14.8-2.2-21 2.1-6.2 4.3-9.6 11.5-9.2 19 0.2 6.3 2.9 12.2 7.4 16.5 6.3 4.9 9.7 12.6 9.1 20.5 0.3 8-3.1 15.8-9.1 21.1-23 20.8-50.5 36-80.3 44.4-7.9 2.3-16.4 1-23.4-3.4-7-4.2-11.8-11.3-13.1-19.4-1.7-10.5-10.8-18.1-21.4-18.1-10.6 0-19.7 7.7-21.4 18.1-1.6 7.9-6.4 14.9-13.1 19.4-3.9 2.9-8.6 4.7-13.5 5.2z m-25.1-70.1l9.1 5.1c14.4-22.2 39.1-35.6 65.5-35.6s51.1 13.4 65.5 35.6l13.1-7.4c-4.5-9.8-6.8-20.5-6.8-31.3 0.1-41.6 32-76.2 73.5-79.8 0.3-4 0.3-8 0-12 0.3-3.6 0.3-7.2 0-10.8-26.4-1.8-50.2-16.5-63.5-39.3-13.4-22.8-14.5-50.8-3.1-74.6-5.7-3.6-11.6-6.8-17.7-9.7-15.5 17.6-37.8 27.7-61.2 27.7s-45.8-10.1-61.2-27.7c-6.3 2.8-12.4 6-18.2 9.7 11.4 23.9 10.2 51.8-3.1 74.6s-37.1 37.5-63.5 39.3c-0.3 3.6-0.3 7.2 0 10.8-0.3 4-0.3 8 0 12 21.3-0.2 41.7 8.2 56.8 23.2 15.1 15 23.6 35.4 23.6 56.6-0.3 11.7-3.2 23.2-8.8 33.6z" fill="#3F85FF" p-id="3343"></path><path d="M511.113 501.244c-29.7 0-56.5-17.9-67.9-45.4s-5.1-59.1 15.9-80.1 52.6-27.3 80.1-15.9c27.5 11.4 45.4 38.2 45.4 67.9 0 40.5-32.9 73.5-73.5 73.5z m0-90.1c-6.7 0-12.7 4-15.3 10.2s-1.1 13.3 3.6 18 11.8 6.1 18 3.6c6.2-2.6 10.2-8.6 10.2-15.3 0-9.1-7.4-16.5-16.5-16.5zM767.178 809.778h-211.5v-69h-89.8v69h-211.4c-24.8 0-44.9 20.1-44.9 44.9 0 24.8 20.1 44.9 44.9 44.9h512.8c24.8 0 44.9-20.1 44.9-44.9-0.1-24.9-20.2-44.9-45-44.9z" fill="#A4BEEC" p-id="3344"></path></svg>